<mxfile host="65bd71144e">
    <diagram name="Page-1" id="fedTbyfh5NdKvyiyw3HD">
        <mxGraphModel dx="1866" dy="878" grid="0" gridSize="10" guides="1" tooltips="1" connect="1" arrows="1" fold="1" page="0" pageScale="1" pageWidth="850" pageHeight="1100" math="0" shadow="0">
            <root>
                <mxCell id="0"/>
                <mxCell id="1" parent="0"/>
                <mxCell id="-5WrKJkN8qCdZIJXr_Yw-16" value="Amed (NSTDA platform)" style="swimlane;horizontal=0;whiteSpace=wrap;html=1;" parent="1" vertex="1">
                    <mxGeometry x="210" y="350" width="1200" height="410" as="geometry"/>
                </mxCell>
                <mxCell id="-5WrKJkN8qCdZIJXr_Yw-17" style="edgeStyle=orthogonalEdgeStyle;rounded=0;orthogonalLoop=1;jettySize=auto;html=1;exitX=1;exitY=0.5;exitDx=0;exitDy=0;entryX=0;entryY=0.5;entryDx=0;entryDy=0;" parent="-5WrKJkN8qCdZIJXr_Yw-16" source="-5WrKJkN8qCdZIJXr_Yw-18" target="-5WrKJkN8qCdZIJXr_Yw-23" edge="1">
                    <mxGeometry relative="1" as="geometry"/>
                </mxCell>
                <mxCell id="-5WrKJkN8qCdZIJXr_Yw-18" value="Open Register Manu" style="rounded=0;whiteSpace=wrap;html=1;" parent="-5WrKJkN8qCdZIJXr_Yw-16" vertex="1">
                    <mxGeometry x="50" y="124" width="120" height="60" as="geometry"/>
                </mxCell>
                <mxCell id="-5WrKJkN8qCdZIJXr_Yw-19" style="edgeStyle=orthogonalEdgeStyle;rounded=0;orthogonalLoop=1;jettySize=auto;html=1;exitX=1;exitY=0.5;exitDx=0;exitDy=0;entryX=0;entryY=0.5;entryDx=0;entryDy=0;" parent="-5WrKJkN8qCdZIJXr_Yw-16" source="-5WrKJkN8qCdZIJXr_Yw-23" target="-5WrKJkN8qCdZIJXr_Yw-25" edge="1">
                    <mxGeometry relative="1" as="geometry"/>
                </mxCell>
                <mxCell id="-5WrKJkN8qCdZIJXr_Yw-20" value="Yes" style="edgeLabel;html=1;align=center;verticalAlign=middle;resizable=0;points=[];" parent="-5WrKJkN8qCdZIJXr_Yw-19" vertex="1" connectable="0">
                    <mxGeometry x="-0.3333" y="-1" relative="1" as="geometry">
                        <mxPoint as="offset"/>
                    </mxGeometry>
                </mxCell>
                <mxCell id="-5WrKJkN8qCdZIJXr_Yw-21" style="edgeStyle=orthogonalEdgeStyle;rounded=0;orthogonalLoop=1;jettySize=auto;html=1;exitX=0.5;exitY=0;exitDx=0;exitDy=0;entryX=0;entryY=0.5;entryDx=0;entryDy=0;" parent="-5WrKJkN8qCdZIJXr_Yw-16" source="-5WrKJkN8qCdZIJXr_Yw-23" target="-5WrKJkN8qCdZIJXr_Yw-27" edge="1">
                    <mxGeometry relative="1" as="geometry"/>
                </mxCell>
                <mxCell id="-5WrKJkN8qCdZIJXr_Yw-22" value="No" style="edgeLabel;html=1;align=center;verticalAlign=middle;resizable=0;points=[];" parent="-5WrKJkN8qCdZIJXr_Yw-21" vertex="1" connectable="0">
                    <mxGeometry x="-0.3961" y="3" relative="1" as="geometry">
                        <mxPoint y="-1" as="offset"/>
                    </mxGeometry>
                </mxCell>
                <mxCell id="-5WrKJkN8qCdZIJXr_Yw-23" value="&amp;nbsp;Is Data From&amp;nbsp;&lt;div&gt;ID Card Display&amp;nbsp;&lt;/div&gt;" style="rhombus;whiteSpace=wrap;html=1;" parent="-5WrKJkN8qCdZIJXr_Yw-16" vertex="1">
                    <mxGeometry x="200" y="109" width="120" height="90" as="geometry"/>
                </mxCell>
                <mxCell id="-5WrKJkN8qCdZIJXr_Yw-24" style="edgeStyle=orthogonalEdgeStyle;rounded=0;orthogonalLoop=1;jettySize=auto;html=1;exitX=1;exitY=0.5;exitDx=0;exitDy=0;entryX=0;entryY=0.5;entryDx=0;entryDy=0;" parent="-5WrKJkN8qCdZIJXr_Yw-16" source="-5WrKJkN8qCdZIJXr_Yw-25" target="-5WrKJkN8qCdZIJXr_Yw-29" edge="1">
                    <mxGeometry relative="1" as="geometry"/>
                </mxCell>
                <mxCell id="-5WrKJkN8qCdZIJXr_Yw-25" value="Click Verify Medical Eligibility Button" style="rounded=0;whiteSpace=wrap;html=1;" parent="-5WrKJkN8qCdZIJXr_Yw-16" vertex="1">
                    <mxGeometry x="380" y="124" width="120" height="60" as="geometry"/>
                </mxCell>
                <mxCell id="-5WrKJkN8qCdZIJXr_Yw-26" style="edgeStyle=orthogonalEdgeStyle;rounded=0;orthogonalLoop=1;jettySize=auto;html=1;exitX=1;exitY=0.5;exitDx=0;exitDy=0;entryX=0.5;entryY=0;entryDx=0;entryDy=0;" parent="-5WrKJkN8qCdZIJXr_Yw-16" source="-5WrKJkN8qCdZIJXr_Yw-27" target="-5WrKJkN8qCdZIJXr_Yw-25" edge="1">
                    <mxGeometry relative="1" as="geometry"/>
                </mxCell>
                <mxCell id="-5WrKJkN8qCdZIJXr_Yw-27" value="Press Bottom Left Button to Retry ID Card Reading" style="rounded=0;whiteSpace=wrap;html=1;" parent="-5WrKJkN8qCdZIJXr_Yw-16" vertex="1">
                    <mxGeometry x="290" y="24" width="120" height="60" as="geometry"/>
                </mxCell>
                <mxCell id="-5WrKJkN8qCdZIJXr_Yw-28" style="edgeStyle=orthogonalEdgeStyle;rounded=0;orthogonalLoop=1;jettySize=auto;html=1;exitX=1;exitY=0.5;exitDx=0;exitDy=0;entryX=0;entryY=0.5;entryDx=0;entryDy=0;" parent="-5WrKJkN8qCdZIJXr_Yw-16" source="-5WrKJkN8qCdZIJXr_Yw-29" target="-5WrKJkN8qCdZIJXr_Yw-31" edge="1">
                    <mxGeometry relative="1" as="geometry"/>
                </mxCell>
                <mxCell id="-5WrKJkN8qCdZIJXr_Yw-29" value="Enter Personal Information&lt;div&gt;&amp;nbsp;( E.g. Address,&amp;nbsp;&lt;/div&gt;&lt;div&gt;Allergy History,&amp;nbsp;&lt;/div&gt;&lt;div&gt;Pre-existing Conditions)&lt;/div&gt;" style="rounded=0;whiteSpace=wrap;html=1;fillColor=#e1d5e7;strokeColor=#9673a6;" parent="-5WrKJkN8qCdZIJXr_Yw-16" vertex="1">
                    <mxGeometry x="530" y="124" width="160" height="60" as="geometry"/>
                </mxCell>
                <mxCell id="-5WrKJkN8qCdZIJXr_Yw-30" style="edgeStyle=orthogonalEdgeStyle;rounded=0;orthogonalLoop=1;jettySize=auto;html=1;exitX=0.5;exitY=1;exitDx=0;exitDy=0;entryX=0.5;entryY=0;entryDx=0;entryDy=0;" parent="-5WrKJkN8qCdZIJXr_Yw-16" source="-5WrKJkN8qCdZIJXr_Yw-31" target="-5WrKJkN8qCdZIJXr_Yw-33" edge="1">
                    <mxGeometry relative="1" as="geometry"/>
                </mxCell>
                <mxCell id="-5WrKJkN8qCdZIJXr_Yw-31" value="Submit Registration" style="rounded=0;whiteSpace=wrap;html=1;" parent="-5WrKJkN8qCdZIJXr_Yw-16" vertex="1">
                    <mxGeometry x="730" y="124" width="120" height="60" as="geometry"/>
                </mxCell>
                <mxCell id="-5WrKJkN8qCdZIJXr_Yw-32" style="edgeStyle=orthogonalEdgeStyle;rounded=0;orthogonalLoop=1;jettySize=auto;html=1;exitX=0;exitY=0.5;exitDx=0;exitDy=0;entryX=1;entryY=0.5;entryDx=0;entryDy=0;" parent="-5WrKJkN8qCdZIJXr_Yw-16" source="-5WrKJkN8qCdZIJXr_Yw-33" target="-5WrKJkN8qCdZIJXr_Yw-35" edge="1">
                    <mxGeometry relative="1" as="geometry"/>
                </mxCell>
                <mxCell id="-5WrKJkN8qCdZIJXr_Yw-33" value="Click Gear Icon to Verify Data" style="rounded=0;whiteSpace=wrap;html=1;" parent="-5WrKJkN8qCdZIJXr_Yw-16" vertex="1">
                    <mxGeometry x="730" y="235" width="120" height="60" as="geometry"/>
                </mxCell>
                <mxCell id="-5WrKJkN8qCdZIJXr_Yw-34" style="edgeStyle=orthogonalEdgeStyle;rounded=0;orthogonalLoop=1;jettySize=auto;html=1;exitX=0;exitY=0.5;exitDx=0;exitDy=0;entryX=1;entryY=0.5;entryDx=0;entryDy=0;" parent="-5WrKJkN8qCdZIJXr_Yw-16" source="-5WrKJkN8qCdZIJXr_Yw-35" target="-5WrKJkN8qCdZIJXr_Yw-37" edge="1">
                    <mxGeometry relative="1" as="geometry"/>
                </mxCell>
                <mxCell id="-5WrKJkN8qCdZIJXr_Yw-35" value="&amp;nbsp;Enter HN Number, and Save Setting" style="rounded=0;whiteSpace=wrap;html=1;" parent="-5WrKJkN8qCdZIJXr_Yw-16" vertex="1">
                    <mxGeometry x="540" y="235" width="120" height="60" as="geometry"/>
                </mxCell>
                <mxCell id="-5WrKJkN8qCdZIJXr_Yw-36" style="edgeStyle=orthogonalEdgeStyle;rounded=0;orthogonalLoop=1;jettySize=auto;html=1;exitX=0;exitY=0.5;exitDx=0;exitDy=0;entryX=1;entryY=0.5;entryDx=0;entryDy=0;" parent="-5WrKJkN8qCdZIJXr_Yw-16" source="-5WrKJkN8qCdZIJXr_Yw-37" target="-5WrKJkN8qCdZIJXr_Yw-39" edge="1">
                    <mxGeometry relative="1" as="geometry"/>
                </mxCell>
                <mxCell id="-5WrKJkN8qCdZIJXr_Yw-37" value="Open Daily Report Page" style="rounded=0;whiteSpace=wrap;html=1;" parent="-5WrKJkN8qCdZIJXr_Yw-16" vertex="1">
                    <mxGeometry x="390" y="235" width="120" height="60" as="geometry"/>
                </mxCell>
                <mxCell id="-5WrKJkN8qCdZIJXr_Yw-38" style="edgeStyle=orthogonalEdgeStyle;rounded=0;orthogonalLoop=1;jettySize=auto;html=1;exitX=0;exitY=0.5;exitDx=0;exitDy=0;entryX=1;entryY=0.5;entryDx=0;entryDy=0;" parent="-5WrKJkN8qCdZIJXr_Yw-16" source="-5WrKJkN8qCdZIJXr_Yw-39" target="-5WrKJkN8qCdZIJXr_Yw-40" edge="1">
                    <mxGeometry relative="1" as="geometry"/>
                </mxCell>
                <mxCell id="-5WrKJkN8qCdZIJXr_Yw-39" value="Enter Patient&#39;s&amp;nbsp;&lt;div&gt;&lt;div&gt;Body Temperature,&amp;nbsp;&lt;/div&gt;&lt;div&gt;Blood Pressure,&amp;nbsp;&lt;/div&gt;&lt;div&gt;and Heart Rate&lt;/div&gt;&lt;/div&gt;" style="rounded=0;whiteSpace=wrap;html=1;fillColor=#f8cecc;strokeColor=#b85450;" parent="-5WrKJkN8qCdZIJXr_Yw-16" vertex="1">
                    <mxGeometry x="190" y="225" width="170" height="80" as="geometry"/>
                </mxCell>
                <mxCell id="-5WrKJkN8qCdZIJXr_Yw-40" value="Submit Report" style="rounded=0;whiteSpace=wrap;html=1;" parent="-5WrKJkN8qCdZIJXr_Yw-16" vertex="1">
                    <mxGeometry x="50" y="235" width="120" height="60" as="geometry"/>
                </mxCell>
                <mxCell id="-5WrKJkN8qCdZIJXr_Yw-66" value="Capture Completed Information Screen&lt;div&gt;&amp;nbsp;And Save to Designated Local Folder to&lt;/div&gt;&lt;div&gt;start Automate Process&lt;/div&gt;" style="rounded=0;whiteSpace=wrap;html=1;fillColor=#fff2cc;strokeColor=#d6b656;gradientColor=#ffd966;" parent="-5WrKJkN8qCdZIJXr_Yw-16" vertex="1">
                    <mxGeometry x="465" y="330" width="270" height="60" as="geometry"/>
                </mxCell>
                <mxCell id="-5WrKJkN8qCdZIJXr_Yw-67" style="edgeStyle=orthogonalEdgeStyle;rounded=0;orthogonalLoop=1;jettySize=auto;html=1;exitX=0.5;exitY=1;exitDx=0;exitDy=0;entryX=0.5;entryY=0;entryDx=0;entryDy=0;" parent="-5WrKJkN8qCdZIJXr_Yw-16" source="-5WrKJkN8qCdZIJXr_Yw-35" edge="1">
                    <mxGeometry relative="1" as="geometry">
                        <mxPoint x="600" y="334" as="targetPoint"/>
                    </mxGeometry>
                </mxCell>
                <mxCell id="-5WrKJkN8qCdZIJXr_Yw-41" value="National ID Card Reader" style="swimlane;horizontal=0;whiteSpace=wrap;html=1;" parent="1" vertex="1">
                    <mxGeometry x="210" y="222" width="1200" height="128" as="geometry"/>
                </mxCell>
                <mxCell id="-5WrKJkN8qCdZIJXr_Yw-42" style="edgeStyle=orthogonalEdgeStyle;rounded=0;orthogonalLoop=1;jettySize=auto;html=1;exitX=1;exitY=0.5;exitDx=0;exitDy=0;entryX=0;entryY=0.5;entryDx=0;entryDy=0;" parent="-5WrKJkN8qCdZIJXr_Yw-41" source="-5WrKJkN8qCdZIJXr_Yw-43" target="-5WrKJkN8qCdZIJXr_Yw-44" edge="1">
                    <mxGeometry relative="1" as="geometry"/>
                </mxCell>
                <mxCell id="-5WrKJkN8qCdZIJXr_Yw-43" value="START" style="rounded=1;whiteSpace=wrap;html=1;" parent="-5WrKJkN8qCdZIJXr_Yw-41" vertex="1">
                    <mxGeometry x="40" y="41" width="120" height="60" as="geometry"/>
                </mxCell>
                <mxCell id="-5WrKJkN8qCdZIJXr_Yw-44" value="Insert ID Card Into&amp;nbsp;&lt;div&gt;Card Reader&lt;/div&gt;" style="rounded=0;whiteSpace=wrap;html=1;" parent="-5WrKJkN8qCdZIJXr_Yw-41" vertex="1">
                    <mxGeometry x="200" y="41" width="120" height="60" as="geometry"/>
                </mxCell>
                <mxCell id="-5WrKJkN8qCdZIJXr_Yw-45" style="edgeStyle=orthogonalEdgeStyle;rounded=0;orthogonalLoop=1;jettySize=auto;html=1;entryX=0;entryY=0.5;entryDx=0;entryDy=0;" parent="-5WrKJkN8qCdZIJXr_Yw-41" source="-5WrKJkN8qCdZIJXr_Yw-46" target="-5WrKJkN8qCdZIJXr_Yw-47" edge="1">
                    <mxGeometry relative="1" as="geometry"/>
                </mxCell>
                <mxCell id="-5WrKJkN8qCdZIJXr_Yw-46" value="Remove ID Card And Return to Patient" style="rounded=0;whiteSpace=wrap;html=1;" parent="-5WrKJkN8qCdZIJXr_Yw-41" vertex="1">
                    <mxGeometry x="851" y="41" width="120" height="60" as="geometry"/>
                </mxCell>
                <mxCell id="-5WrKJkN8qCdZIJXr_Yw-47" value="END" style="rounded=1;whiteSpace=wrap;html=1;" parent="-5WrKJkN8qCdZIJXr_Yw-41" vertex="1">
                    <mxGeometry x="1027" y="41" width="120" height="60" as="geometry"/>
                </mxCell>
                <mxCell id="-5WrKJkN8qCdZIJXr_Yw-48" style="edgeStyle=orthogonalEdgeStyle;rounded=0;orthogonalLoop=1;jettySize=auto;html=1;exitX=0.5;exitY=1;exitDx=0;exitDy=0;entryX=0.5;entryY=0;entryDx=0;entryDy=0;" parent="1" source="-5WrKJkN8qCdZIJXr_Yw-44" target="-5WrKJkN8qCdZIJXr_Yw-18" edge="1">
                    <mxGeometry relative="1" as="geometry"/>
                </mxCell>
                <mxCell id="-5WrKJkN8qCdZIJXr_Yw-51" value="Prototype Web (Local Host)" style="swimlane;horizontal=0;whiteSpace=wrap;html=1;" parent="1" vertex="1">
                    <mxGeometry x="210" y="760" width="1200" height="230" as="geometry"/>
                </mxCell>
                <mxCell id="-5WrKJkN8qCdZIJXr_Yw-81" style="edgeStyle=orthogonalEdgeStyle;rounded=0;orthogonalLoop=1;jettySize=auto;html=1;exitX=1;exitY=0.5;exitDx=0;exitDy=0;entryX=0;entryY=0.5;entryDx=0;entryDy=0;" parent="-5WrKJkN8qCdZIJXr_Yw-51" source="-5WrKJkN8qCdZIJXr_Yw-72" target="-5WrKJkN8qCdZIJXr_Yw-74" edge="1">
                    <mxGeometry relative="1" as="geometry"/>
                </mxCell>
                <mxCell id="-5WrKJkN8qCdZIJXr_Yw-88" value="No" style="edgeLabel;html=1;align=center;verticalAlign=middle;resizable=0;points=[];" parent="-5WrKJkN8qCdZIJXr_Yw-81" vertex="1" connectable="0">
                    <mxGeometry x="-0.1556" y="2" relative="1" as="geometry">
                        <mxPoint as="offset"/>
                    </mxGeometry>
                </mxCell>
                <mxCell id="-5WrKJkN8qCdZIJXr_Yw-92" style="edgeStyle=orthogonalEdgeStyle;rounded=0;orthogonalLoop=1;jettySize=auto;html=1;exitX=0.5;exitY=1;exitDx=0;exitDy=0;entryX=0.5;entryY=0;entryDx=0;entryDy=0;" parent="-5WrKJkN8qCdZIJXr_Yw-51" source="-5WrKJkN8qCdZIJXr_Yw-72" target="-5WrKJkN8qCdZIJXr_Yw-78" edge="1">
                    <mxGeometry relative="1" as="geometry"/>
                </mxCell>
                <mxCell id="-5WrKJkN8qCdZIJXr_Yw-93" value="Yes" style="edgeLabel;html=1;align=center;verticalAlign=middle;resizable=0;points=[];" parent="-5WrKJkN8qCdZIJXr_Yw-92" vertex="1" connectable="0">
                    <mxGeometry x="-0.0807" y="1" relative="1" as="geometry">
                        <mxPoint as="offset"/>
                    </mxGeometry>
                </mxCell>
                <mxCell id="-5WrKJkN8qCdZIJXr_Yw-72" value="Is Data&lt;div&gt;Accurate&lt;/div&gt;" style="rhombus;whiteSpace=wrap;html=1;" parent="-5WrKJkN8qCdZIJXr_Yw-51" vertex="1">
                    <mxGeometry x="230" y="19.999999999999996" width="90" height="95.03" as="geometry"/>
                </mxCell>
                <mxCell id="-5WrKJkN8qCdZIJXr_Yw-82" style="edgeStyle=orthogonalEdgeStyle;rounded=0;orthogonalLoop=1;jettySize=auto;html=1;exitX=0.5;exitY=1;exitDx=0;exitDy=0;entryX=1;entryY=0.5;entryDx=0;entryDy=0;" parent="-5WrKJkN8qCdZIJXr_Yw-51" source="-5WrKJkN8qCdZIJXr_Yw-74" target="-5WrKJkN8qCdZIJXr_Yw-78" edge="1">
                    <mxGeometry relative="1" as="geometry"/>
                </mxCell>
                <mxCell id="-5WrKJkN8qCdZIJXr_Yw-74" value="Edit Data with User" style="rounded=0;whiteSpace=wrap;html=1;" parent="-5WrKJkN8qCdZIJXr_Yw-51" vertex="1">
                    <mxGeometry x="380" y="37.519999999999996" width="120" height="60" as="geometry"/>
                </mxCell>
                <mxCell id="-5WrKJkN8qCdZIJXr_Yw-78" value="Submit Data&amp;nbsp;" style="rounded=0;whiteSpace=wrap;html=1;" parent="-5WrKJkN8qCdZIJXr_Yw-51" vertex="1">
                    <mxGeometry x="215" y="150" width="120" height="60" as="geometry"/>
                </mxCell>
                <mxCell id="-5WrKJkN8qCdZIJXr_Yw-68" value="Power Automation Desktop" style="swimlane;horizontal=0;whiteSpace=wrap;html=1;" parent="1" vertex="1">
                    <mxGeometry x="210" y="990" width="1200" height="131" as="geometry"/>
                </mxCell>
                <mxCell id="-5WrKJkN8qCdZIJXr_Yw-70" value="Patient Added to Doctor Queue" style="rounded=0;whiteSpace=wrap;html=1;" parent="-5WrKJkN8qCdZIJXr_Yw-68" vertex="1">
                    <mxGeometry x="851" y="40.00000000000003" width="120" height="60" as="geometry"/>
                </mxCell>
                <mxCell id="-5WrKJkN8qCdZIJXr_Yw-84" style="edgeStyle=orthogonalEdgeStyle;rounded=0;orthogonalLoop=1;jettySize=auto;html=1;exitX=1;exitY=0.5;exitDx=0;exitDy=0;entryX=0;entryY=0.5;entryDx=0;entryDy=0;" parent="-5WrKJkN8qCdZIJXr_Yw-68" source="-5WrKJkN8qCdZIJXr_Yw-83" target="-5WrKJkN8qCdZIJXr_Yw-70" edge="1">
                    <mxGeometry relative="1" as="geometry"/>
                </mxCell>
                <mxCell id="-5WrKJkN8qCdZIJXr_Yw-83" value="Click to Fill Data&lt;div&gt;To Database&lt;/div&gt;" style="rounded=0;whiteSpace=wrap;html=1;" parent="-5WrKJkN8qCdZIJXr_Yw-68" vertex="1">
                    <mxGeometry x="215" y="40" width="120" height="60" as="geometry"/>
                </mxCell>
                <mxCell id="-5WrKJkN8qCdZIJXr_Yw-73" style="edgeStyle=orthogonalEdgeStyle;rounded=0;orthogonalLoop=1;jettySize=auto;html=1;exitX=0;exitY=0.5;exitDx=0;exitDy=0;entryX=0.5;entryY=0;entryDx=0;entryDy=0;" parent="1" source="-5WrKJkN8qCdZIJXr_Yw-66" target="-5WrKJkN8qCdZIJXr_Yw-72" edge="1">
                    <mxGeometry relative="1" as="geometry"/>
                </mxCell>
                <mxCell id="-5WrKJkN8qCdZIJXr_Yw-87" value="Use AI to Extract Text From Picture" style="edgeLabel;html=1;align=center;verticalAlign=middle;resizable=0;points=[];" parent="-5WrKJkN8qCdZIJXr_Yw-73" vertex="1" connectable="0">
                    <mxGeometry x="-0.1308" y="1" relative="1" as="geometry">
                        <mxPoint as="offset"/>
                    </mxGeometry>
                </mxCell>
                <mxCell id="-5WrKJkN8qCdZIJXr_Yw-85" style="edgeStyle=orthogonalEdgeStyle;rounded=0;orthogonalLoop=1;jettySize=auto;html=1;exitX=0.5;exitY=0;exitDx=0;exitDy=0;entryX=0.5;entryY=1;entryDx=0;entryDy=0;" parent="1" source="-5WrKJkN8qCdZIJXr_Yw-70" target="-5WrKJkN8qCdZIJXr_Yw-46" edge="1">
                    <mxGeometry relative="1" as="geometry"/>
                </mxCell>
                <mxCell id="-5WrKJkN8qCdZIJXr_Yw-86" style="edgeStyle=orthogonalEdgeStyle;rounded=0;orthogonalLoop=1;jettySize=auto;html=1;exitX=0.5;exitY=1;exitDx=0;exitDy=0;" parent="1" source="-5WrKJkN8qCdZIJXr_Yw-78" target="-5WrKJkN8qCdZIJXr_Yw-83" edge="1">
                    <mxGeometry relative="1" as="geometry"/>
                </mxCell>
            </root>
        </mxGraphModel>
    </diagram>
</mxfile>